<svg width="40" height="40" viewBox="0 0 40 40" fill="none" xmlns="http://www.w3.org/2000/svg">
<path d="M30 33.3333L36.3733 26.96C36.5609 26.7726 36.6664 26.5185 36.6667 26.2533V17.5C36.6667 16.837 36.4033 16.2011 35.9344 15.7322C35.4656 15.2634 34.8297 15 34.1667 15C33.5036 15 32.8677 15.2634 32.3989 15.7322C31.9301 16.2011 31.6667 16.837 31.6667 17.5V25" stroke="white" stroke-width="2.5" stroke-linecap="round" stroke-linejoin="round"/>
<path d="M30.0007 26.6667L31.4307 25.2367C31.5061 25.1619 31.5659 25.0728 31.6065 24.9746C31.6471 24.8765 31.6678 24.7712 31.6673 24.665C31.6661 24.5153 31.6239 24.3689 31.5451 24.2416C31.4663 24.1143 31.3541 24.0111 31.2207 23.9433L30.4823 23.575C29.8568 23.2622 29.1488 23.1541 28.4584 23.266C27.7681 23.3779 27.1304 23.704 26.6357 24.1983L25.144 25.69C24.5188 26.315 24.1675 27.1627 24.1673 28.0467V33.3333M10.0007 33.3333L3.62732 26.96C3.43973 26.7726 3.33422 26.5185 3.33398 26.2533V17.5C3.33398 16.837 3.59738 16.2011 4.06622 15.7322C4.53506 15.2634 5.17094 15 5.83398 15C6.49703 15 7.13291 15.2634 7.60175 15.7322C8.07059 16.2011 8.33398 16.837 8.33398 17.5V25" stroke="white" stroke-width="2.5" stroke-linecap="round" stroke-linejoin="round"/>
<path d="M10.0007 26.667L8.57065 25.237C8.42132 25.0839 8.33659 24.8792 8.33398 24.6653C8.33398 24.3603 8.50732 24.082 8.78065 23.9437L9.51898 23.5753C10.1445 23.2626 10.8525 23.1545 11.5429 23.2663C12.2332 23.3782 12.8709 23.7044 13.3657 24.1987L14.8573 25.6903C15.4825 26.3153 15.8338 27.163 15.834 28.047V33.3337M22.779 20.0003H17.2223V16.112H13.334V10.5553H17.2223V6.66699H22.779V10.5553H26.6673V16.112H22.779V20.0003Z" stroke="white" stroke-width="2.5" stroke-linecap="round" stroke-linejoin="round"/>
</svg>
