<svg width="41" height="41" viewBox="0 0 41 41" fill="none" xmlns="http://www.w3.org/2000/svg">
<path d="M12.4714 25.1124L14.5214 23.0624C12.813 21.3541 11.9589 19.1333 11.9589 17.0833C11.9589 14.8624 12.813 12.6416 14.5214 11.1041L12.4714 9.0541C10.2505 11.2749 9.05469 14.1791 9.05469 17.0833C9.05469 19.9874 10.2505 22.8916 12.4714 25.1124ZM32.6297 4.9541L30.5797 7.0041C33.313 9.73743 34.6797 13.4958 34.6797 17.0833C34.6797 20.6708 33.313 24.4291 30.5797 27.1624L32.6297 29.2124C36.0464 25.7958 37.5839 21.5249 37.5839 17.0833C37.5839 12.6416 35.8755 8.37077 32.6297 4.9541Z" fill="white"/>
<path d="M10.4202 7.0041L8.37018 4.9541C5.12435 8.37077 3.41602 12.6416 3.41602 17.0833C3.41602 21.5249 5.12435 25.7958 8.37018 29.2124L10.4202 27.1624C7.68685 24.4291 6.32018 20.6708 6.32018 17.0833C6.32018 13.4958 7.68685 9.73743 10.4202 7.0041ZM28.5285 25.1124C30.7493 22.8916 31.9452 19.9874 31.9452 17.0833C31.7743 14.1791 30.7493 11.2749 28.5285 9.0541L26.4785 11.1041C28.1868 12.8124 29.041 15.0333 29.041 17.0833C29.041 19.3041 28.1868 21.5249 26.4785 23.0624L28.5285 25.1124ZM24.7702 17.0833C24.7702 15.9506 24.3202 14.8643 23.5193 14.0633C22.7183 13.2624 21.632 12.8124 20.4993 12.8124C19.3667 12.8124 18.2803 13.2624 17.4794 14.0633C16.6785 14.8643 16.2285 15.9506 16.2285 17.0833C16.2285 18.3816 16.8093 19.5091 17.7148 20.2949L11.9577 37.5833H15.3743L16.5189 34.1666H24.4968L25.6243 37.5833H29.041L23.2839 20.2949C24.1893 19.5091 24.7702 18.3816 24.7702 17.0833ZM17.6464 30.7499L20.4993 22.2083L23.3523 30.7499H17.6464Z" fill="white"/>
</svg>
