<svg width="40" height="40" viewBox="0 0 40 40" fill="none" xmlns="http://www.w3.org/2000/svg">
<g clip-path="url(#clip0_1820_29)">
<path d="M39.7002 19.6838C39.9256 19.3036 39.9908 18.8495 39.8814 18.4213C39.772 17.9932 39.497 17.6259 39.1169 17.4005L37.8336 16.6671C37.7598 16.6207 37.7024 16.5523 37.6695 16.4716C37.6366 16.3909 37.6299 16.3019 37.6502 16.2171C37.8938 14.9766 37.8018 13.6935 37.3836 12.5005C36.6029 10.2232 35.2885 8.1659 33.5502 6.50046C30.3002 3.25046 26.5669 1.80046 23.8669 2.45046C23.7649 2.48473 23.6538 2.47982 23.5552 2.43669C23.4566 2.39356 23.3776 2.3153 23.3336 2.21713L22.5336 0.883797C22.3088 0.521487 21.9538 0.259088 21.5414 0.150582C21.1291 0.0420762 20.6909 0.0957151 20.3169 0.300464C19.9396 0.528685 19.6681 0.897119 19.5619 1.32508C19.4557 1.75304 19.5234 2.20565 19.7502 2.5838L20.6836 4.15046C20.7404 4.22141 20.7713 4.30958 20.7713 4.40046C20.7713 4.49135 20.7404 4.57952 20.6836 4.65046L17.1669 8.10046C17.1219 8.14473 17.0675 8.17821 17.0077 8.19836C16.9479 8.2185 16.8843 8.2248 16.8217 8.21678C16.7591 8.20875 16.6991 8.18661 16.6463 8.15203C16.5935 8.11744 16.5493 8.07131 16.5169 8.01713L16.1336 7.35046C15.8742 7.05568 15.519 6.86195 15.1308 6.80344C14.7425 6.74492 14.346 6.82537 14.0112 7.03061C13.6765 7.23585 13.4249 7.55269 13.301 7.92527C13.177 8.29785 13.1885 8.70224 13.3336 9.06713L14.2669 10.6171C14.3224 10.6918 14.3523 10.7824 14.3523 10.8755C14.3523 10.9685 14.3224 11.0591 14.2669 11.1338L10.6836 14.5838C10.64 14.6265 10.5875 14.659 10.5299 14.6792C10.4723 14.6994 10.411 14.7066 10.3502 14.7005C10.2807 14.6954 10.2131 14.6748 10.1525 14.6402C10.092 14.6056 10.0399 14.5578 10.0002 14.5005L9.61691 13.8338C9.37424 13.5001 9.01641 13.2683 8.61268 13.1832C8.20895 13.0981 7.78801 13.1658 7.43131 13.3732C7.07461 13.5806 6.80752 13.9129 6.68171 14.3059C6.5559 14.6988 6.58032 15.1245 6.75025 15.5005L7.68358 17.0505C7.73905 17.1252 7.769 17.2157 7.769 17.3088C7.769 17.4018 7.73905 17.4924 7.68358 17.5671L4.21692 21.0671C4.16957 21.1093 4.11411 21.1415 4.05393 21.1615C3.99376 21.1816 3.93012 21.1892 3.86691 21.1838C3.80318 21.1741 3.74214 21.1514 3.68764 21.117C3.63314 21.0825 3.58636 21.0372 3.55025 20.9838L3.16692 20.3171C2.92424 19.9834 2.56641 19.7516 2.16268 19.6666C1.75895 19.5815 1.33801 19.6492 0.98131 19.8566C0.624614 20.0639 0.357521 20.3963 0.231712 20.7892C0.105904 21.1822 0.130324 21.6078 0.300249 21.9838L1.41692 23.8338C1.44901 23.8926 1.46583 23.9585 1.46583 24.0255C1.46583 24.0924 1.44901 24.1583 1.41692 24.2171C0.250249 26.9505 1.70025 31.1171 5.25025 34.6838C7.39507 37.0949 10.3715 38.6069 13.5836 38.9171C14.2882 38.9195 14.9858 38.7777 15.6336 38.5005C15.6924 38.4684 15.7583 38.4515 15.8252 38.4515C15.8922 38.4515 15.9581 38.4684 16.0169 38.5005L17.8836 39.6171C18.1426 39.7655 18.4351 39.8457 18.7336 39.8505C19.0228 39.8504 19.3071 39.7751 19.5584 39.6319C19.8097 39.4887 20.0194 39.2826 20.1669 39.0338C20.3937 38.6557 20.4614 38.203 20.3552 37.7751C20.249 37.3471 19.9775 36.9787 19.6002 36.7505L18.9336 36.3671C18.8802 36.331 18.8348 36.2842 18.8004 36.2297C18.766 36.1752 18.7432 36.1142 18.7336 36.0505C18.7282 35.9873 18.7358 35.9236 18.7559 35.8634C18.7759 35.8033 18.808 35.7478 18.8502 35.7005L22.3002 32.2671C22.375 32.2117 22.4655 32.1817 22.5586 32.1817C22.6516 32.1817 22.7422 32.2117 22.8169 32.2671L24.3669 33.2005C24.6242 33.3531 24.9178 33.4337 25.2169 33.4338C25.5046 33.4355 25.7877 33.3627 26.0389 33.2225C26.2901 33.0823 26.5007 32.8795 26.6502 32.6338C26.7652 32.4459 26.8417 32.237 26.8754 32.0194C26.9091 31.8017 26.8993 31.5795 26.8466 31.3656C26.7939 31.1517 26.6994 30.9504 26.5684 30.7733C26.4374 30.5962 26.2726 30.4468 26.0836 30.3338L25.5002 30.0005C25.4468 29.9644 25.4015 29.9176 25.3671 29.8631C25.3327 29.8086 25.3099 29.7475 25.3002 29.6838C25.2941 29.6231 25.3014 29.5618 25.3215 29.5042C25.3417 29.4466 25.3742 29.3941 25.4169 29.3505L28.8669 25.9005C28.9416 25.845 29.0322 25.815 29.1252 25.815C29.2183 25.815 29.3089 25.845 29.3836 25.9005L30.9336 26.8338C31.1908 26.9864 31.4844 27.067 31.7836 27.0671C32.0712 27.0688 32.3544 26.996 32.6056 26.8558C32.8567 26.7156 33.0673 26.5128 33.2169 26.2671C33.3318 26.0792 33.4084 25.8704 33.4421 25.6527C33.4758 25.435 33.466 25.2128 33.4133 24.9989C33.3606 24.7851 33.266 24.5838 33.1351 24.4066C33.0041 24.2295 32.8393 24.0802 32.6502 23.9671L31.9836 23.5838C31.9294 23.5514 31.8833 23.5072 31.8487 23.4544C31.8141 23.4016 31.792 23.3417 31.7839 23.2791C31.7759 23.2164 31.7822 23.1528 31.8024 23.093C31.8225 23.0332 31.856 22.9788 31.9002 22.9338L35.3502 19.4838C35.4212 19.427 35.5094 19.396 35.6003 19.396C35.6911 19.396 35.7793 19.427 35.8502 19.4838L37.4169 20.4171C37.6721 20.5747 37.9671 20.6556 38.2669 20.6505C38.5714 20.6358 38.866 20.5379 39.1187 20.3675C39.3714 20.1971 39.5726 19.9606 39.7002 19.6838ZM21.1836 28.8338C20.7836 29.2338 19.8502 29.2505 18.7502 28.8338L18.5002 28.7505C18.4349 28.7257 18.3765 28.6854 18.3301 28.6332C18.2837 28.581 18.2505 28.5183 18.2336 28.4505C18.2192 28.3819 18.2224 28.3109 18.2428 28.2438C18.2632 28.1768 18.3002 28.1161 18.3502 28.0671L21.6836 24.7338C21.7519 24.6783 21.8372 24.648 21.9252 24.648C22.0133 24.648 22.0986 24.6783 22.1669 24.7338C22.8204 25.0931 23.5069 25.3889 24.2169 25.6171L21.1836 28.8338ZM7.63358 32.3838C7.41136 32.1616 7.21136 31.9449 7.03358 31.7338C6.96212 31.6567 6.92242 31.5555 6.92242 31.4505C6.92242 31.3454 6.96212 31.2442 7.03358 31.1671L10.5669 27.6338C10.6061 27.5946 10.653 27.564 10.7047 27.544C10.7563 27.5239 10.8116 27.5147 10.8669 27.5171C10.9237 27.5157 10.98 27.527 11.0319 27.5501C11.0838 27.5731 11.1299 27.6074 11.1669 27.6505L11.7169 28.2505L12.3169 28.8005C12.36 28.8375 12.3943 28.8836 12.4173 28.9355C12.4404 28.9873 12.4516 29.0437 12.4502 29.1005C12.4526 29.1558 12.4435 29.2111 12.4234 29.2627C12.4033 29.3144 12.3727 29.3613 12.3336 29.4005L8.83358 32.9338C8.75653 33.0052 8.65533 33.045 8.55025 33.045C8.44517 33.045 8.34396 33.0052 8.26692 32.9338L7.63358 32.3838ZM4.68358 25.3005L7.76691 22.2171C7.99318 22.9225 8.28909 23.6037 8.65025 24.2505C8.70705 24.3214 8.738 24.4096 8.738 24.5005C8.738 24.5913 8.70705 24.6795 8.65025 24.7505L5.31692 28.0838C5.26797 28.1339 5.20719 28.1708 5.14019 28.1912C5.07319 28.2116 5.00213 28.2148 4.93358 28.2005C4.86452 28.1864 4.80039 28.1543 4.74771 28.1075C4.69503 28.0607 4.65566 28.0007 4.63358 27.9338C4.26692 26.6671 4.28358 25.7005 4.68358 25.3005ZM13.8836 16.1005C13.9325 16.0504 13.9933 16.0134 14.0603 15.993C14.1273 15.9726 14.1984 15.9695 14.2669 15.9838C14.336 15.9979 14.4001 16.0299 14.4528 16.0768C14.5055 16.1236 14.5448 16.1835 14.5669 16.2505C14.7756 16.786 15.0149 17.3091 15.2836 17.8171C15.3239 17.8987 15.3376 17.9908 15.3226 18.0806C15.3077 18.1703 15.2649 18.2531 15.2002 18.3171L11.8669 21.6505C11.818 21.7006 11.7572 21.7375 11.6902 21.7579C11.6232 21.7783 11.5521 21.7815 11.4836 21.7671C11.4158 21.7502 11.3531 21.7171 11.3008 21.6706C11.2486 21.6242 11.2084 21.5658 11.1836 21.5005C11.1773 21.4172 11.1773 21.3337 11.1836 21.2505C10.8336 20.1338 10.8502 19.2171 11.1836 18.8171L13.8836 16.1005ZM20.3669 9.61713C20.4159 9.56703 20.4766 9.53008 20.5436 9.50969C20.6106 9.4893 20.6817 9.48613 20.7502 9.50046C20.8193 9.51454 20.8834 9.54661 20.9361 9.59344C20.9888 9.64027 21.0282 9.70019 21.0502 9.76713C21.2551 10.3043 21.4945 10.8276 21.7669 11.3338C21.8073 11.4153 21.8209 11.5075 21.806 11.5973C21.791 11.687 21.7482 11.7698 21.6836 11.8338L18.3502 15.1671C18.3013 15.2172 18.2405 15.2542 18.1735 15.2746C18.1065 15.295 18.0355 15.2981 17.9669 15.2838C17.8981 15.2673 17.8353 15.2321 17.7853 15.1821C17.7353 15.1321 17.7001 15.0692 17.6836 15.0005C17.2336 13.7338 17.2336 12.7505 17.6836 12.3338L20.3669 9.61713ZM20.5836 19.4171L20.0002 18.7838C19.9322 18.7051 19.8948 18.6045 19.8948 18.5005C19.8948 18.3964 19.9322 18.2959 20.0002 18.2171L23.5669 14.6671C23.6061 14.628 23.653 14.5974 23.7047 14.5773C23.7563 14.5572 23.8116 14.5481 23.8669 14.5505C23.9255 14.5484 23.9836 14.561 24.0361 14.5872C24.0885 14.6134 24.1335 14.6523 24.1669 14.7005L24.7169 15.2838L25.3002 15.8505C25.3433 15.8875 25.3776 15.9336 25.4007 15.9855C25.4237 16.0373 25.435 16.0937 25.4336 16.1505C25.4382 16.206 25.4301 16.262 25.4099 16.3139C25.3897 16.3659 25.3579 16.4126 25.3169 16.4505L21.7836 20.0005C21.7049 20.0685 21.6043 20.1059 21.5002 20.1059C21.3962 20.1059 21.2956 20.0685 21.2169 20.0005L20.5836 19.4171ZM14.1002 25.9005C13.9002 25.6838 13.7169 25.4671 13.5169 25.2671C13.4476 25.1857 13.4096 25.0823 13.4096 24.9755C13.4096 24.8686 13.4476 24.7652 13.5169 24.6838L17.0669 21.1505C17.1482 21.0745 17.2556 21.0327 17.3669 21.0338C17.486 21.0346 17.5998 21.0826 17.6836 21.1671C17.8502 21.3671 18.0169 21.5671 18.2169 21.7671C18.4169 21.9671 18.6002 22.1338 18.8002 22.3171C18.8484 22.3506 18.8873 22.3956 18.9135 22.448C18.9397 22.5004 18.9524 22.5586 18.9502 22.6171C18.9526 22.6725 18.9435 22.7277 18.9234 22.7794C18.9033 22.831 18.8727 22.8779 18.8336 22.9171L15.3169 26.4671C15.2355 26.5364 15.1321 26.5744 15.0252 26.5744C14.9184 26.5744 14.815 26.5364 14.7336 26.4671L14.1002 25.9005ZM27.6669 22.3505C27.2669 22.7505 26.3336 22.7671 25.2336 22.3505H24.9836C24.9182 22.3257 24.8599 22.2854 24.8134 22.2332C24.767 22.181 24.7339 22.1183 24.7169 22.0505C24.7026 21.9819 24.7058 21.9109 24.7261 21.8439C24.7465 21.7769 24.7835 21.7161 24.8336 21.6671L28.1669 18.3338C28.2365 18.2811 28.3213 18.2525 28.4086 18.2525C28.4958 18.2525 28.5807 18.2811 28.6502 18.3338C29.16 18.606 29.6892 18.84 30.2336 19.0338C30.2983 19.0568 30.3557 19.0968 30.3996 19.1496C30.4436 19.2024 30.4726 19.266 30.4836 19.3338C30.5016 19.4009 30.5019 19.4715 30.4844 19.5387C30.4668 19.6059 30.4321 19.6674 30.3836 19.7171L27.6669 22.3505ZM31.2002 8.80046C32.5438 10.103 33.5751 11.6927 34.2169 13.4505C34.4061 13.8281 34.5046 14.2447 34.5046 14.6671C34.5046 15.0895 34.4061 15.5061 34.2169 15.8838C33.3836 16.7005 30.1502 15.8838 27.1336 12.9338C24.1169 9.9838 23.3336 6.66713 24.1169 5.85046C24.408 5.63006 24.7695 5.5234 25.1336 5.55046C27.4803 5.87053 29.6336 7.0241 31.2002 8.80046ZM12.0336 35.2838C11.9687 35.2632 11.9101 35.2263 11.8635 35.1767C11.8168 35.1272 11.7836 35.0665 11.7669 35.0005C11.7526 34.9319 11.7558 34.8609 11.7761 34.7938C11.7965 34.7268 11.8335 34.6661 11.8836 34.6171L15.2169 31.2838C15.2879 31.227 15.376 31.196 15.4669 31.196C15.5578 31.196 15.646 31.227 15.7169 31.2838C16.3637 31.645 17.0448 31.9409 17.7502 32.1671C17.7562 32.1802 17.7593 32.1944 17.7593 32.2088C17.7593 32.2232 17.7562 32.2374 17.7502 32.2505L14.7002 35.3171C14.3002 35.7338 13.3336 35.7338 12.0336 35.2838Z" fill="white"/>
</g>
<defs>
<clipPath id="clip0_1820_29">
<rect width="40" height="40" fill="white"/>
</clipPath>
</defs>
</svg>
