<svg width="41" height="41" viewBox="0 0 41 41" fill="none" xmlns="http://www.w3.org/2000/svg">
<path d="M20.9798 30.0581C26.5199 30.0581 31.021 25.8089 31.2125 20.5C31.021 15.1912 26.5199 10.9419 20.9798 10.9419C15.4397 10.9419 10.938 15.1912 10.749 20.5C10.9374 25.8089 15.4397 30.0581 20.9798 30.0581Z" fill="#6C6C6C"/>
<path d="M20.9805 6.40625C13.1969 6.40625 6.88611 12.7164 6.88611 20.5C6.88611 28.283 13.1975 34.5938 20.9805 34.5938C28.7635 34.5938 35.0742 28.283 35.0742 20.5C35.0742 12.7164 28.7635 6.40625 20.9805 6.40625ZM20.9799 30.75C15.3187 30.75 10.7292 26.3162 10.7292 20.8453C10.7292 20.7287 10.7452 20.6153 10.7491 20.5C10.7452 20.3847 10.7292 20.2707 10.7292 20.1547C10.7292 14.6838 15.3193 10.25 20.9799 10.25C26.6404 10.25 31.2299 14.6838 31.2299 20.1547C31.2299 20.2707 31.2164 20.3847 31.2132 20.5C31.217 20.6153 31.2299 20.7287 31.2299 20.8453C31.2292 26.3162 26.6411 30.75 20.9799 30.75Z" fill="#6C6C6C"/>
<path d="M2.23005 4.75414C2.3838 4.15131 2.68809 4.74709 2.68809 4.74709C2.68809 4.74709 2.79444 10.9868 3.48631 11.0547C4.17819 11.1226 3.64519 4.63434 4.4639 4.51006C5.22497 4.38898 4.79062 11.1578 5.48378 11.0893C6.17437 11.0162 6.29097 4.77912 6.29097 4.77912C6.29097 4.77912 6.59847 4.18398 6.7503 4.78233C8.62604 12.1559 7.1084 15.1701 7.1084 15.1701C7.1084 15.1701 6.85215 15.8036 6.24356 15.8068C6.18655 15.8036 6.22947 33.319 6.22562 35.6739C6.2269 36.8187 2.70219 36.7835 2.70411 35.6438C2.70667 33.2889 2.77522 15.7755 2.72012 15.7767C2.10961 15.7767 1.854 15.1438 1.854 15.1438C1.854 15.1438 0.342123 12.1316 2.23005 4.75414ZM35.6316 4.48443C36.4247 4.48251 39.7149 6.85475 39.7188 15.671C39.7226 18.4904 38.1845 18.4898 38.187 20.2534C38.1896 22.0139 38.1992 36.0166 38.1992 36.0166C38.1992 36.0166 36.5118 37.1742 35.2575 35.9628L35.2344 4.73492C35.2357 4.73556 35.2312 4.48379 35.6316 4.48443Z" fill="#6C6C6C"/>
</svg>
