<svg width="45" height="45" viewBox="0 0 45 45" fill="none" xmlns="http://www.w3.org/2000/svg">
<path d="M32.6125 21C32.1812 20.4375 31.6562 19.95 31.1687 19.4625C29.9125 18.3375 28.4875 17.5313 27.2875 16.35C24.4937 13.6125 23.875 9.09375 25.6562 5.625C23.875 6.05625 22.3187 7.03125 20.9875 8.1C16.1312 12 14.2187 18.8813 16.5062 24.7875C16.5812 24.975 16.6562 25.1625 16.6562 25.4063C16.6562 25.8188 16.375 26.1938 16 26.3438C15.5687 26.5313 15.1187 26.4188 14.7625 26.1188C14.6561 26.0296 14.5671 25.9215 14.5 25.8C12.3812 23.1188 12.0437 19.275 13.4687 16.2C10.3375 18.75 8.63122 23.0625 8.87497 27.1313C8.98747 28.0688 9.09997 29.0063 9.41872 29.9438C9.68122 31.0688 10.1875 32.1938 10.75 33.1875C12.775 36.4313 16.2812 38.7563 20.05 39.225C24.0625 39.7313 28.3562 39 31.4312 36.225C34.8625 33.1125 36.0625 28.125 34.3 23.85L34.0562 23.3625C33.6625 22.5 32.6125 21 32.6125 21ZM26.6875 32.8125C26.1625 33.2625 25.3 33.75 24.625 33.9375C22.525 34.6875 20.425 33.6375 19.1875 32.4C21.4187 31.875 22.75 30.225 23.1437 28.5562C23.4625 27.0562 22.8625 25.8187 22.6187 24.375C22.3937 22.9875 22.4312 21.8062 22.9375 20.5125C23.2937 21.225 23.6687 21.9375 24.1187 22.5C25.5625 24.375 27.8312 25.2 28.3187 27.75C28.3937 28.0125 28.4312 28.275 28.4312 28.5562C28.4875 30.0937 27.8125 31.7812 26.6875 32.8125Z" fill="#6C6C6C"/>
</svg>
