<svg width="41" height="40" viewBox="0 0 41 40" fill="none" xmlns="http://www.w3.org/2000/svg">
<path d="M6.83335 33.3333C5.89377 33.3333 5.08971 33.0072 4.42119 32.355C3.75266 31.7027 3.41783 30.9177 3.41669 30V9.99996C3.41669 9.08329 3.75152 8.29885 4.42119 7.64663C5.09085 6.9944 5.89491 6.66774 6.83335 6.66663H34.1667C35.1063 6.66663 35.9109 6.99329 36.5806 7.64663C37.2502 8.29996 37.5845 9.0844 37.5834 9.99996V30C37.5834 30.9166 37.2491 31.7016 36.5806 32.355C35.912 33.0083 35.1074 33.3344 34.1667 33.3333H6.83335ZM8.54169 28.3333H25.625V11.6666H8.54169V28.3333ZM30.75 28.3333C31.234 28.3333 31.6401 28.1733 31.9681 27.8533C32.2961 27.5333 32.4595 27.1377 32.4584 26.6666C32.4572 26.1955 32.2932 25.8 31.9664 25.48C31.6395 25.16 31.234 25 30.75 25C30.266 25 29.8605 25.16 29.5337 25.48C29.2068 25.8 29.0428 26.1955 29.0417 26.6666C29.0405 27.1377 29.2045 27.5338 29.5337 27.855C29.8628 28.1761 30.2683 28.3355 30.75 28.3333ZM11.9584 25V15H22.2084V25H11.9584ZM30.75 21.6666C31.234 21.6666 31.6401 21.5066 31.9681 21.1866C32.2961 20.8666 32.4595 20.4711 32.4584 20C32.4572 19.5288 32.2932 19.1333 31.9664 18.8133C31.6395 18.4933 31.234 18.3333 30.75 18.3333C30.266 18.3333 29.8605 18.4933 29.5337 18.8133C29.2068 19.1333 29.0428 19.5288 29.0417 20C29.0405 20.4711 29.2045 20.8672 29.5337 21.1883C29.8628 21.5094 30.2683 21.6688 30.75 21.6666ZM30.75 15C31.234 15 31.6401 14.84 31.9681 14.52C32.2961 14.2 32.4595 13.8044 32.4584 13.3333C32.4572 12.8622 32.2932 12.4666 31.9664 12.1466C31.6395 11.8266 31.234 11.6666 30.75 11.6666C30.266 11.6666 29.8605 11.8266 29.5337 12.1466C29.2068 12.4666 29.0428 12.8622 29.0417 13.3333C29.0405 13.8044 29.2045 14.2005 29.5337 14.5216C29.8628 14.8427 30.2683 15.0022 30.75 15Z" fill="#6C6C6C"/>
</svg>
