<svg width="41" height="40" viewBox="0 0 41 40" fill="none" xmlns="http://www.w3.org/2000/svg">
<g clip-path="url(#clip0_1574_740)">
<path d="M0.993726 11.5641L19.6471 19.8196C20.1917 20.061 20.8075 20.061 21.352 19.8196L40.0054 11.5641C41.3307 10.9774 41.3307 9.02347 40.0054 8.43675L21.3528 0.180496C21.0853 0.0611569 20.7945 -0.000610352 20.5004 -0.000610352C20.2062 -0.000610352 19.9155 0.0611569 19.6479 0.180496L0.993726 8.43597C-0.331567 9.02268 -0.331567 10.9774 0.993726 11.5641ZM40.0062 18.461L35.3545 16.4039L22.4106 22.1282C21.8052 22.3961 21.1622 22.5321 20.5 22.5321C19.8377 22.5321 19.1955 22.3961 18.5893 22.1282L5.64627 16.4039L0.993726 18.461C-0.331567 19.0469 -0.331567 21 0.993726 21.586L19.6471 29.8352C20.1917 30.0758 20.8075 30.0758 21.352 29.8352L40.0062 21.586C41.3315 21 41.3315 19.0469 40.0062 18.461ZM40.0062 28.4453L35.3721 26.3961L22.4106 32.1282C21.8052 32.3961 21.1622 32.5321 20.5 32.5321C19.8377 32.5321 19.1955 32.3961 18.5893 32.1282L5.62865 26.3961L0.993726 28.4453C-0.331567 29.0313 -0.331567 30.9844 0.993726 31.5703L19.6471 39.8196C20.1917 40.0602 20.8075 40.0602 21.352 39.8196L40.0062 31.5703C41.3315 30.9844 41.3315 29.0313 40.0062 28.4453Z" fill="#6C6C6C"/>
</g>
<defs>
<clipPath id="clip0_1574_740">
<rect width="41" height="40" fill="white"/>
</clipPath>
</defs>
</svg>
