<svg width="41" height="40" viewBox="0 0 41 40" fill="none" xmlns="http://www.w3.org/2000/svg">
<path d="M17.3254 37.4279C19.4874 39.5536 21.4949 39.5372 23.6577 37.4279L26.3 34.8658C26.5746 34.615 26.8147 34.5143 27.1749 34.5143H30.8817C33.9531 34.5143 35.3771 33.1415 35.3771 30.1286V26.5122C35.3771 26.1608 35.4803 25.9265 35.7373 25.6586L38.3459 23.08C40.5424 20.9708 40.5248 19.0122 38.3459 16.9029L35.7373 14.3243C35.4803 14.0743 35.3771 13.8229 35.3771 13.4879V9.85504C35.3771 6.87504 33.9699 5.46933 30.8817 5.46933H27.1749C26.8147 5.46933 26.5746 5.38504 26.3 5.13361L23.657 2.5729C21.4949 0.446468 19.4874 0.463611 17.3254 2.5729L14.6824 5.13433C14.4261 5.38504 14.1684 5.46861 13.825 5.46861H10.1013C7.03 5.46861 5.60598 6.84147 5.60598 9.85433V13.4879C5.60598 13.8229 5.51959 14.0736 5.26187 14.325L2.63714 16.9036C0.457553 19.0122 0.475125 20.9708 2.63714 23.0808L5.26261 25.6586C5.51959 25.9265 5.60525 26.1608 5.60525 26.5122V30.1286C5.60525 33.125 7.03 34.5143 10.1006 34.5143H13.825C14.1684 34.5143 14.4254 34.615 14.6831 34.8658L17.3254 37.4279ZM17.5999 28.4208C17.0684 28.4208 16.725 28.2536 16.4673 27.9686L10.7361 21.7579C10.4958 21.495 10.3618 21.1558 10.3591 20.8036C10.3591 20.0165 10.9762 19.4308 11.8519 19.4308C12.3146 19.4308 12.658 19.5815 12.9669 19.8993L17.5136 24.805L26.3512 12.6672C26.6946 12.1815 27.038 11.9815 27.6384 11.9815C28.4789 11.9815 29.0799 12.5836 29.0799 13.3708C29.0799 13.655 28.9599 13.99 28.771 14.2579L18.767 27.9022C18.5093 28.22 18.1154 28.4208 17.5999 28.4208Z" fill="#6C6C6C"/>
</svg>
