<svg class="w-10 h-10 sm:w-12 sm:h-12 text-white" viewBox="0 0 28 28" fill="currentColor" xmlns="http://www.w3.org/2000/svg">
  <path d="M19.915,7.659h-.24a5.739,5.739,0,0,0-11.47,0h-.12a1,1,0,0,0-1,1,.959.959,0,0,0,.49.83h12.86a.971.971,0,0,0,.48-.83A1,1,0,0,0,19.915,7.659Zm-6.03-2.43a.67.67,0,1,1,.67-.67A.67.67,0,0,1,13.885,5.229Zm1.95,2.18a.679.679,0,0,1-.68-.67.687.687,0,0,1,.68-.68.679.679,0,0,1,.67.68A.67.67,0,0,1,15.835,7.409Zm.5-2.28a.67.67,0,1,1,.67-.67A.67.67,0,0,1,16.335,5.129Z" />
  <path d="M13.363,25.415a.679.679,0,0,0,1.275,0l3.708-10.109H9.63Z" />
  <path d="M8.823,10.493H7.8a7.437,7.437,0,0,0,.156,1.226,7.1,7.1,0,0,0,.863,2.19c.086.142.193.266.289.4h9.8c.1-.134.2-.257.289-.4a7.1,7.1,0,0,0,.864-2.19,7.43,7.43,0,0,0,.156-1.226H8.823Z" />
</svg>
