<svg class="w-10 h-10 sm:w-12 sm:h-12 text-white" viewBox="0 0 24 24" fill="currentColor" xmlns="http://www.w3.org/2000/svg">
  <path fill-rule="evenodd" clip-rule="evenodd" d="M3.5 11.3535C3.5 11.0774 3.72386 10.8535 4 10.8535H20C20.2761 10.8535 20.5 11.0774 20.5 11.3535V14.177C20.5 14.4532 20.2761 14.677 20 14.677H4C3.72386 14.677 3.5 14.4532 3.5 14.177V11.3535ZM4.5 11.8535V13.677H19.5V11.8535H4.5Z" />
  <path d="M6.35292 12.7665C6.35292 13.0264 6.14223 13.2371 5.88233 13.2371C5.62243 13.2371 5.41174 13.0264 5.41174 12.7665C5.41174 12.5066 5.62243 12.2959 5.88233 12.2959C6.14223 12.2959 6.35292 12.5066 6.35292 12.7665Z" />
  <path d="M18.5882 12.7665C18.5882 13.0264 18.3776 13.2371 18.1177 13.2371C17.8578 13.2371 17.6471 13.0264 17.6471 12.7665C17.6471 12.5066 17.8578 12.2959 18.1177 12.2959C18.3776 12.2959 18.5882 12.5066 18.5882 12.7665Z" />
  <path fill-rule="evenodd" clip-rule="evenodd" d="M3.5 16.0596C3.5 15.7834 3.72386 15.5596 4 15.5596H20C20.2761 15.5596 20.5 15.7834 20.5 16.0596V18.8831C20.5 19.1592 20.2761 19.3831 20 19.3831H4C3.72386 19.3831 3.5 19.1592 3.5 18.8831V16.0596ZM4.5 16.5596V18.3831H19.5V16.5596H4.5Z" />
  <path fill-rule="evenodd" clip-rule="evenodd" d="M4.44116 14.1777C4.44116 13.9016 4.66502 13.6777 4.94116 13.6777H19.0588C19.335 13.6777 19.5588 13.9016 19.5588 14.1777V16.0601C19.5588 16.3362 19.335 16.5601 19.0588 16.5601H4.94116C4.66502 16.5601 4.44116 16.3362 4.44116 16.0601V14.1777ZM5.44116 14.6777V15.5601H18.5588V14.6777H5.44116Z" />
  <path d="M6.35292 17.4716C6.35292 17.7315 6.14223 17.9422 5.88233 17.9422C5.62243 17.9422 5.41174 17.7315 5.41174 17.4716C5.41174 17.2117 5.62243 17.001 5.88233 17.001C6.14223 17.001 6.35292 17.2117 6.35292 17.4716Z" />
  <path d="M18.5882 17.4716C18.5882 17.7315 18.3776 17.9422 18.1177 17.9422C17.8578 17.9422 17.6471 17.7315 17.6471 17.4716C17.6471 17.2117 17.8578 17.001 18.1177 17.001C18.3776 17.001 18.5882 17.2117 18.5882 17.4716Z" />
  <path fill-rule="evenodd" clip-rule="evenodd" d="M3.5 20.7656C3.5 20.4895 3.72386 20.2656 4 20.2656H20C20.2761 20.2656 20.5 20.4895 20.5 20.7656V23.5892C20.5 23.8653 20.2761 24.0892 20 24.0892H4C3.72386 24.0892 3.5 23.8653 3.5 23.5892V20.7656ZM4.5 21.2656V23.0892H19.5V21.2656H4.5Z" />
  <path d="M6.35292 22.1765C6.35292 22.4364 6.14223 22.6471 5.88233 22.6471C5.62243 22.6471 5.41174 22.4364 5.41174 22.1765C5.41174 21.9166 5.62243 21.7059 5.88233 21.7059C6.14223 21.7059 6.35292 21.9166 6.35292 22.1765Z" />
  <path d="M18.5882 22.1765C18.5882 22.4364 18.3776 22.6471 18.1177 22.6471C17.8578 22.6471 17.6471 22.4364 17.6471 22.1765C17.6471 21.9166 17.8578 21.7059 18.1177 21.7059C18.3776 21.7059 18.5882 21.9166 18.5882 22.1765Z" />
  <path d="M12.1765 2.23529C12.1765 2.4952 11.9658 2.70588 11.7059 2.70588C11.446 2.70588 11.2353 2.4952 11.2353 2.23529C11.2353 1.97539 11.446 1.76471 11.7059 1.76471C11.9658 1.76471 12.1765 1.97539 12.1765 2.23529Z" />
  <path fill-rule="evenodd" clip-rule="evenodd" d="M3.5 2.23529C3.5 1.95915 3.72386 1.73529 4 1.73529H8C8.27614 1.73529 8.5 1.95915 8.5 2.23529V5.05882C8.5 5.33496 8.27614 5.55882 8 5.55882H4C3.72386 5.55882 3.5 5.33496 3.5 5.05882V2.23529ZM4 2.23529V4.55882H8V2.23529H4Z" />
  <path d="M16 2.23529C16 2.4952 15.7893 2.70588 15.5294 2.70588C15.2695 2.70588 15.0588 2.4952 15.0588 2.23529C15.0588 1.97539 15.2695 1.76471 15.5294 1.76471C15.7893 1.76471 16 1.97539 16 2.23529Z" />
  <path fill-rule="evenodd" clip-rule="evenodd" d="M15.5 2.23529C15.5 1.95915 15.7239 1.73529 16 1.73529H20C20.2761 1.73529 20.5 1.95915 20.5 2.23529V5.05882C20.5 5.33496 20.2761 5.55882 20 5.55882H16C15.7239 5.55882 15.5 5.33496 15.5 5.05882V2.23529ZM16 2.23529V4.55882H20V2.23529H16Z" />
</svg>
