<svg class="w-10 h-10 sm:w-12 sm:h-12 text-white" viewBox="0 0 100 100" fill="currentColor" xmlns="http://www.w3.org/2000/svg">
  <path d="m50 3.1289c-25.848 0-46.875 21.023-46.875 46.867 0 25.848 21.027 46.875 46.875 46.875s46.875-21.027 46.875-46.875c0-25.844-21.027-46.871-46.875-46.871zm0 91.086c-24.383 0-44.219-19.836-44.219-44.219 0-24.379 19.836-44.211 44.219-44.211s44.219 19.832 44.219 44.211c0 24.383-19.836 44.219-44.219 44.219zm32.211-49.32c0.26562 1.668 0.39844 3.3867 0.39844 5.1016 0 9.8867-4.4102 19.125-12.094 25.352-0.24609 0.19922-0.54297 0.29688-0.83594 0.29688-0.38672 0-0.76953-0.16797-1.0352-0.49219-0.46094-0.57031-0.375-1.4062 0.19531-1.8672 7.0625-5.7188 11.109-14.207 11.109-23.289 0-1.5781-0.125-3.1562-0.36719-4.6875-0.11328-0.72656 0.37891-1.4062 1.1055-1.5195 0.72266-0.11719 1.4062 0.37891 1.5195 1.1055zm-47.797 32.262c-0.25391 0.39844-0.68359 0.61719-1.125 0.61719-0.24219 0-0.48828-0.066407-0.71094-0.20703-9.5117-6.0195-15.191-16.324-15.191-27.574 0-3.8867 0.67578-7.6875 2.0117-11.305 0.25391-0.6875 1.0195-1.0391 1.707-0.78516s1.0391 1.0195 0.78516 1.707c-1.2266 3.3203-1.8477 6.8164-1.8477 10.383 0 10.332 5.2148 19.801 13.953 25.328 0.62109 0.39063 0.80469 1.2148 0.41406 1.832zm19.637 3.8984c0.0625 0.73047-0.48047 1.375-1.2109 1.4336-0.92969 0.078125-1.8867 0.11719-2.8398 0.11719-0.73438 0-1.3281-0.59375-1.3281-1.3281s0.59375-1.3281 1.3281-1.3281c0.87891 0 1.7578-0.035157 2.6172-0.10938 0.73047-0.0625 1.375 0.48047 1.4336 1.2109zm-14.332-60.637c-0.21094-0.70312 0.1875-1.4453 0.89062-1.6562 3.0391-0.91016 6.1992-1.375 9.3906-1.375 5.2344 0 10.449 1.2734 15.074 3.6836 0.65234 0.33984 0.90234 1.1406 0.5625 1.793-0.23828 0.45312-0.69922 0.71484-1.1797 0.71484-0.20703 0-0.41797-0.046875-0.61328-0.15234-4.3086-2.2461-8.9688-3.3828-13.844-3.3828-2.9336 0-5.8359 0.42578-8.6289 1.2617-0.70312 0.21094-1.4453-0.1875-1.6562-0.89063zm9.0664 54.289-9.8672-29.566 3.0234-6.0195 19.738 39.457c0.25391 0.50391 0.80078 0.8125 1.3828 0.71875 0.57812-0.089844 1.0625-0.54297 1.168-1.1445l3.0039-19.516 8.9258 17.852c0.24609 0.49219 0.75391 0.78906 1.293 0.78906s1.043-0.29297 1.2891-0.78125l9.8867-19.734 1.0039 4.0078c0.11719 0.47266 0.48438 0.85547 0.96094 0.99609s0.95703 0.054687 1.3633-0.19531l4.9609-3.3086c0.55859-0.375 0.75-1.1016 0.43359-1.6836l-2.4961-4.5664 2.5039-1.6758c0.49609-0.33203 0.69922-0.97266 0.50781-1.5195-0.19141-0.54688-0.71875-0.91406-1.2891-0.91797h-4.9727l-1.0039-4.0078c-0.11719-0.47266-0.48438-0.85547-0.96094-0.99609-0.47266-0.14453-0.95703-0.054687-1.3633 0.19531l-4.957 3.3086c-0.5625 0.37109-0.75391 1.1016-0.4375 1.6836l2.4961 4.5703-19.738 13.207c-0.48828 0.32422-0.6875 0.94922-0.50781 1.4922 0.17578 0.54688 0.69141 0.91406 1.2578 0.92188h5.0039l1.0039 4.0078c0.11719 0.47266 0.48438 0.85547 0.96094 0.99609 0.47656 0.14062 0.99609 0.042969 1.3633-0.25391l4.9609-3.3086c0.55859-0.375 0.75-1.1016 0.43359-1.6836l-2.4961-4.5664 2.4961-1.6758c0.5-0.33203 0.70312-0.97266 0.50781-1.5195-0.19141-0.54688-0.71484-0.91406-1.2891-0.91797h-4.9727l-1.0039-4.0078c-0.11719-0.47266-0.48438-0.85547-0.96094-0.99609-0.47656-0.14062-0.99609-0.042969-1.3633 0.25391l-4.957 3.3086c-0.5625 0.37109-0.75391 1.1016-0.4375 1.6836l2.4961 4.5703-10.004 6.6992-19.738-39.457c-0.25391-0.50391-0.80078-0.8125-1.3828-0.71875-0.57812 0.089844-1.0625 0.54297-1.168 1.1445l-3.0039 19.516zm4.8828-32.195 8.9219 17.844-19.734 13.203-8.9258-17.844zm10.93 38.773 9.0625 18.129-9.0664-6.0625-8.9219-17.844zm28.746 0.023437 9.0625 18.133-9.0664-6.0664-8.9219-17.844zm-1.0586-21.156 2.4961 4.5703-19.738 13.203-2.5039-5.0078zm-4.9219-9.8359 2.4961 4.5703-19.734 13.203-2.5039-5.0078z"/>
</svg>
