<svg class="w-10 h-10 sm:w-12 sm:h-12 text-white" viewBox="0 0 100 100" fill="currentColor" xmlns="http://www.w3.org/2000/svg">
  <path d="m50.344 55.156c3.2188-2.4688 5.75-5.6562 7.5-9.3438 3.6562-0.1875 5.2812-4.75 5.7188-7.7812 3.5938 2.875 8.8438 3.125 12.719 0.59375 2.4062-1.5938 4.0625-4.0312 4.6562-6.8438 0.34375-1.6875 0.28125-3.4062-0.15625-5.0312 2.5938 0.6875 5.7188 0.90625 8.0625-0.625 1.7812-1.1562 2.3125-3.6875 1.125-5.4688 1.0938-2.5625-0.84375-5.4688-3.625-5.4688-1.1875-1.8125-3.6562-2.3125-5.5-1.125-2.5 1.6562-3.4375 4.8438-3.7812 7.1562-3.5625-2.8438-8.6875-3.2188-12.719-0.59375-2.7812 1.8125-4.5625 4.8438-4.8438 8.1562-0.5625-2.25-1.4375-4.4375-2.5938-6.5-3.375-5.9375-8.8438-10.156-15.375-11.969s-13.406-0.9375-19.312 2.4375c-12.188 7-16.469 22.625-9.5 34.844 3.375 5.9375 8.8438 10.156 15.375 11.969 2.2188 0.59375 4.4688 0.90625 6.7188 0.90625 3.25 0 6.4375-0.625 9.4688-1.8438l17.188 30.25c2.25 3.9688 8.25 0.40625 6.0625-3.4688zm8.1562-11.969c-1.8438 1.2188-2.0938-1.5938-3.5-1.5938-1.2188 0-3.2188-0.75-1.9375-2.4375 0.375-0.5 0.3125-1.1875-0.15625-1.5938-0.6875-0.625-0.59375-1.9375 0.1875-2.4688 2.1562-1.4062 6.3125-0.9375 8.25 0.59375 0.03125 1.2188-0.21875 5.7812-2.8438 7.5zm21.125-22.594c0.3125-1.5312 1.0312-3.5625 2.5625-4.5625 0.71875-0.46875 1.7188-0.28125 2.1875 0.4375 0.0625 0.09375 0.125 0.21875 0.15625 0.34375 0.1875 0.59375 0.8125 0.90625 1.4062 0.75 0.65625-0.15625 1.2812 0.15625 1.6875 0.65625 0.375 0.5625 0.34375 1.2812-0.0625 1.8125-0.59375 0.75 0 1.3125 0.40625 1.9062 0.46875 0.84375 0.3125 1.5625-0.4375 2.1875-2.625 1.7188-6.9062 0.15625-8.0625-0.3125l-0.1875-0.28125c0-0.53125 0.0625-1.6562 0.34375-2.9375zm-17.562 7.3125c0.46875-2.1875 1.75-4.0938 3.625-5.3438 1.4375-0.9375 3.0312-1.375 4.625-1.375 2.75 0 5.4375 1.3438 7.0625 3.7812 1.25 1.875 1.6562 4.125 1.2188 6.3125s-1.75 4.0938-3.625 5.3438c-3.875 2.5625-9.125 1.4688-11.688-2.4062-1.2188-1.875-1.6562-4.125-1.2188-6.3125zm-33.312 29.719c-3.875 2.5625-9.125 1.4688-11.688-2.4062-1.25-1.875-1.6562-4.125-1.2188-6.3125 0.46875-2.1875 1.75-4.0938 3.625-5.3438 1.4375-0.9375 3.0312-1.375 4.625-1.375 2.75 0 5.4375 1.3438 7.0625 3.7812 1.25 1.875 1.6562 4.125 1.2188 6.3125-0.46875 2.1875-1.75 4.0938-3.625 5.3438zm-18.5-23.094c0.3125-1.5312 1.0312-3.5625 2.5625-4.5625 0.71875-0.46875 1.7188-0.28125 2.1875 0.4375 0.0625 0.09375 0.125 0.21875 0.15625 0.34375 0.1875 0.59375 0.8125 0.90625 1.4062 0.75 0.65625-0.15625 1.2812 0.15625 1.6875 0.65625 0.375 0.5625 0.34375 1.2812-0.0625 1.8125-0.59375 0.75 0 1.3125 0.40625 1.9062 0.46875 0.84375 0.3125 1.5625-0.4375 2.1875-2.625 1.7188-6.9062 0.15625-8.0625-0.3125l-0.1875-0.28125c0-0.53125 0.0625-1.6562 0.34375-2.9375z"/>
</svg>
