<svg class="w-10 h-10 sm:w-12 sm:h-12 text-white" viewBox="0 0 64 64" fill="currentColor" xmlns="http://www.w3.org/2000/svg">
  <path d="M58,29h-.27L53.07,14.47A5,5,0,0,0,48.31,11H15.69a5,5,0,0,0-4.76,3.47L6.27,29H6a3,3,0,0,0,0,6h.27l4.66,14.53A5,5,0,0,0,15.69,53H48.31a5,5,0,0,0,4.76-3.47L57.73,35H58a3,3,0,0,0,0-6ZM12.83,15.08A3,3,0,0,1,15.69,13H48.31a3,3,0,0,1,2.86,2.08L55.63,29h-15l-1.91-4.4a1,1,0,0,0-.92-.6H26.17a1,1,0,0,0-.92.6L23.34,29h-15ZM38.48,29h-13l1.3-3H37.18ZM51.17,48.92A3,3,0,0,1,48.31,51H15.69a3,3,0,0,1-2.86-2.08L8.37,35H55.63ZM58,33H6a1,1,0,0,1,0-2H58a1,1,0,0,1,0,2Z" />
  <path d="M32,48a1,1,0,0,0,1-1V40a1,1,0,0,0-2,0v7A1,1,0,0,0,32,48Z" />
  <path d="M25,48a1,1,0,0,0,1-1V40a1,1,0,0,0-2,0v7A1,1,0,0,0,25,48Z" />
  <path d="M18,48a1,1,0,0,0,1-1V40a1,1,0,0,0-2,0v7A1,1,0,0,0,18,48Z" />
  <path d="M39,48a1,1,0,0,0,1-1V40a1,1,0,0,0-2,0v7A1,1,0,0,0,39,48Z" />
  <path d="M46,48a1,1,0,0,0,1-1V40a1,1,0,0,0-2,0v7A1,1,0,0,0,46,48Z" />
</svg>
